{"title":"Equestria Girl 2013 720p Español Latino","uid":9162082,"size":1028991931,"categoryP":"video","categoryS":"hd___movies","magnet":"?xt=urn:btih:a0482e839026da7e5b61d77617dfdb6f21bff372&amp;dn=Equestria+Girl+2013+720p+Espa%26ntilde%3Bol+Latino&amp;tr=udp%3A%2F%2Ftracker.openbittorrent.com%3A80&amp;tr=udp%3A%2F%2Fopen.demonii.com%3A1337&amp;tr=udp%3A%2F%2Ftracker.coppersurfer.tk%3A6969&amp;tr=udp%3A%2F%2Fexodus.desync.com%3A6969","seeders":3,"leechers":1,"uploader":"JuanKamacho","files":2,"time":1383885451,"description":"Video\nID                                       : 1\nFormat                                   : AVC\nFormat/Info                              : Advanced Video Codec\nFormat profile                           : &lt;a class=&quot;__cf_email__&quot; href=&quot;/cdn-cgi/l/email-protection&quot; data-cfemail=&quot;7c34151b143c304f524d&quot;&gt;[email&amp;#160;protected]&lt;/a&gt;&lt;script cf-hash='f9e31' type=&quot;text/javascript&quot;&gt;\n/* &lt;![CDATA[ */!function(){try{var t=&quot;currentScript&quot;in document?document.currentScript:function(){for(var t=document.getElementsByTagName(&quot;script&quot;),e=t.length;e--;)if(t[e].getAttribute(&quot;cf-hash&quot;))return t[e]}();if(t&amp;&amp;t.previousSibling){var e,r,n,i,c=t.previousSibling,a=c.getAttribute(&quot;data-cfemail&quot;);if(a){for(e=&quot;&quot;,r=parseInt(a.substr(0,2),16),n=2;a.length-n;n+=2)i=parseInt(a.substr(n,2),16)^r,e+=String.fromCharCode(i);e=document.createTextNode(e),c.parentNode.replaceChild(e,c)}}}catch(u){}}();/* ]]&gt; */&lt;/script&gt;\nFormat settings, CABAC                   : Yes\nFormat settings, ReFrames                : 4 frames\nCodec ID                                 : avc1\nCodec ID/Info                            : Advanced Video Coding\nDuration                                 : 1h 13mn\nBit rate                                 : 1 711 Kbps\nWidth                                    : 1 280 pixels\nHeight                                   : 720 pixels\nDisplay aspect ratio                     : 16:9\nFrame rate mode                          : Constant\nFrame rate                               : 23.976 fps\nColor space                              : YUV\nChroma subsampling                       : 4:2:0\nBit depth                                : 8 bits\nScan type                                : Progressive\nBits/(Pixel*Frame)                       : 0.077\nStream size                              : 897 MiB (91%)\nWriting library                          : x264 core 129 r2245 \n\n\nAudio\nID                                       : 2\nFormat                                   : AAC\nFormat/Info                              : Advanced Audio Codec\nFormat profile                           : LC\nCodec ID                                 : 40\nDuration                                 : 1h 13mn\nSource duration                          : 1h 13mn\nBit rate mode                            : Variable\nBit rate                                 : 158 Kbps\nChannel(s)                               : 2 channels\nChannel positions                        : Front: L R\nSampling rate                            : 44.1 KHz\nCompression mode                         : Lossy\nDelay relative to video                  : 37ms\nStream size                              : 82.6 MiB (8%)\nSource stream size                       : 82.6 MiB (8%)\nEncoded date                             : UTC 2013-09-16 16:51:32\nTagged date                              : UTC 2013-09-16 16:51:32\n","torrent":{"xt":"urn:btih:a0482e839026da7e5b61d77617dfdb6f21bff372","amp;dn":"Equestria+Girl+2013+720p+Espa%26ntilde%3Bol+Latino","amp;tr":["udp%3A%2F%2Ftracker.openbittorrent.com%3A80","udp%3A%2F%2Fopen.demonii.com%3A1337","udp%3A%2F%2Ftracker.coppersurfer.tk%3A6969","udp%3A%2F%2Fexodus.desync.com%3A6969"],"infoHash":"a0482e839026da7e5b61d77617dfdb6f21bff372","infoHashBuffer":{"type":"Buffer","data":[160,72,46,131,144,38,218,126,91,97,215,118,23,223,219,111,33,191,243,114]},"announce":[],"urlList":[]}}